<svg width="800" height="273" viewBox="0 0 800 273" fill="none" xmlns="http://www.w3.org/2000/svg">
<g id="keys">
<g id="q">
<rect x="81.0127" y="55.4561" width="50.6329" height="50.4146" rx="6" fill="#9B9B9B"/>
<path id="Q" d="M111.839 80.513C111.839 81.8867 111.621 83.0716 111.185 84.0677C110.748 85.0572 110.136 85.832 109.349 86.3919L111.888 88.3841L110.608 89.5657L107.61 87.1829C107.142 87.3001 106.647 87.3587 106.126 87.3587C105.006 87.3587 104.013 87.0852 103.147 86.5384C102.282 85.985 101.608 85.2005 101.126 84.1848C100.651 83.1627 100.407 81.9811 100.394 80.6399V79.6145C100.394 78.2473 100.631 77.0397 101.106 75.9915C101.582 74.9433 102.252 74.1425 103.118 73.5891C103.991 73.0292 104.987 72.7493 106.106 72.7493C107.252 72.7493 108.258 73.026 109.124 73.5794C109.996 74.1328 110.667 74.9303 111.136 75.972C111.605 77.0071 111.839 78.218 111.839 79.6048V80.513ZM109.964 79.595C109.964 77.9218 109.629 76.6328 108.958 75.7278C108.294 74.8164 107.343 74.3606 106.106 74.3606C104.928 74.3606 103.997 74.8131 103.313 75.718C102.636 76.6165 102.288 77.8665 102.269 79.468V80.513C102.269 82.1406 102.607 83.4231 103.284 84.3606C103.968 85.2981 104.915 85.7669 106.126 85.7669C107.337 85.7669 108.274 85.3274 108.938 84.4485C109.603 83.5631 109.944 82.2968 109.964 80.6497V79.595Z" fill="#E2E2E2"/>
</g>
<g id="tilda">
<rect width="50.6329" height="50.4146" rx="6" fill="#9B9B9B"/>
<path id="`" d="M26.4454 19.5784H24.8926L22.3731 16.7073H24.5508L26.4454 19.5784Z" fill="#E2E2E2"/>
</g>
<g id="a">
<rect x="96.2025" y="110.912" width="50.6329" height="50.4146" rx="6" fill="#9B9B9B"/>
<path id="A" d="M124.021 138.908H118.064L116.726 142.619H114.792L120.222 128.401H121.863L127.302 142.619H125.378L124.021 138.908ZM118.63 137.365H123.464L121.042 130.715L118.63 137.365Z" fill="#E2E2E2"/>
</g>
<g id="z">
<rect x="121.519" y="166.368" width="50.6329" height="50.4146" rx="6" fill="#9B9B9B"/>
<path id="Z" d="M143.892 196.542H152.027V198.075H141.675V196.669L149.468 185.4H141.802V183.857H151.714V185.234L143.892 196.542Z" fill="#E2E2E2"/>
</g>
<g id="w">
<rect x="136.709" y="55.4561" width="50.6329" height="50.4146" rx="6" fill="#9B9B9B"/>
<path id="W" d="M157.742 82.6809L158.016 84.5559L158.416 82.8665L161.228 72.9446H162.81L165.555 82.8665L165.945 84.5852L166.248 82.6712L168.455 72.9446H170.34L166.893 87.1634H165.184L162.254 76.802L162.029 75.718L161.805 76.802L158.768 87.1634H157.059L153.621 72.9446H155.496L157.742 82.6809Z" fill="#E2E2E2"/>
</g>
<g id="key-1">
<rect x="55.6962" width="50.6329" height="50.4146" rx="6" fill="#9B9B9B"/>
<path id="1" d="M82.1318 31.7073H80.3154V19.6663L76.6728 21.0042V19.3635L81.8486 17.4202H82.1318V31.7073Z" fill="#E2E2E2"/>
</g>
<g id="s">
<rect x="151.899" y="110.912" width="50.6329" height="50.4146" rx="6" fill="#9B9B9B"/>
<path id="S" d="M177.055 136.282C175.447 135.819 174.275 135.253 173.539 134.582C172.81 133.905 172.446 133.072 172.446 132.082C172.446 130.962 172.892 130.038 173.784 129.309C174.682 128.573 175.847 128.205 177.28 128.205C178.256 128.205 179.125 128.394 179.887 128.772C180.655 129.149 181.248 129.67 181.664 130.334C182.088 130.998 182.299 131.724 182.299 132.512H180.414C180.414 131.653 180.141 130.979 179.594 130.49C179.047 129.996 178.276 129.748 177.28 129.748C176.355 129.748 175.632 129.953 175.112 130.364C174.597 130.767 174.34 131.33 174.34 132.053C174.34 132.632 174.584 133.124 175.073 133.528C175.567 133.925 176.404 134.289 177.582 134.621C178.767 134.953 179.692 135.321 180.356 135.725C181.026 136.122 181.521 136.587 181.84 137.121C182.166 137.655 182.328 138.283 182.328 139.006C182.328 140.158 181.879 141.083 180.981 141.78C180.082 142.47 178.881 142.815 177.377 142.815C176.401 142.815 175.489 142.629 174.643 142.258C173.797 141.88 173.142 141.366 172.68 140.715C172.224 140.064 171.996 139.325 171.996 138.498H173.881C173.881 139.358 174.197 140.038 174.828 140.539C175.466 141.034 176.316 141.282 177.377 141.282C178.367 141.282 179.125 141.08 179.653 140.676C180.18 140.272 180.444 139.722 180.444 139.026C180.444 138.329 180.2 137.792 179.711 137.414C179.223 137.03 178.338 136.653 177.055 136.282Z" fill="#E2E2E2"/>
</g>
<g id="x">
<rect x="177.215" y="166.368" width="50.6329" height="50.4146" rx="6" fill="#9B9B9B"/>
<path id="X" d="M202.321 189.306L205.729 183.857H207.936L203.444 190.907L208.043 198.075H205.817L202.321 192.529L198.805 198.075H196.588L201.198 190.907L196.696 183.857H198.893L202.321 189.306Z" fill="#E2E2E2"/>
</g>
<g id="e">
<rect x="192.405" y="55.4561" width="50.6329" height="50.4146" rx="6" fill="#9B9B9B"/>
<path id="E" d="M221.409 80.5911H215.247V85.6302H222.405V87.1634H213.372V72.9446H222.307V74.4876H215.247V79.0579H221.409V80.5911Z" fill="#E2E2E2"/>
</g>
<g id="key-2">
<rect x="111.392" width="50.6329" height="50.4146" rx="6" fill="#9B9B9B"/>
<path id="2" d="M141.207 31.7073H131.891V30.4085L136.812 24.9397C137.542 24.1129 138.043 23.4423 138.316 22.928C138.596 22.4072 138.736 21.8701 138.736 21.3167C138.736 20.5745 138.512 19.9658 138.062 19.4905C137.613 19.0152 137.014 18.7776 136.266 18.7776C135.367 18.7776 134.667 19.0348 134.166 19.5491C133.671 20.0569 133.424 20.7665 133.424 21.678H131.617C131.617 20.3694 132.037 19.3115 132.877 18.5042C133.723 17.6969 134.853 17.2932 136.266 17.2932C137.587 17.2932 138.632 17.6415 139.4 18.3382C140.168 19.0283 140.553 19.9495 140.553 21.1018C140.553 22.5016 139.661 24.1682 137.877 26.1018L134.068 30.2327H141.207V31.7073Z" fill="#E2E2E2"/>
</g>
<g id="d">
<rect x="207.595" y="110.912" width="50.6329" height="50.4146" rx="6" fill="#9B9B9B"/>
<path id="D" d="M227.562 142.619V128.401H231.575C232.812 128.401 233.906 128.674 234.857 129.221C235.807 129.768 236.54 130.546 237.054 131.555C237.575 132.564 237.838 133.723 237.845 135.032V135.94C237.845 137.281 237.585 138.456 237.064 139.465C236.549 140.474 235.81 141.249 234.847 141.789C233.89 142.33 232.773 142.606 231.497 142.619H227.562ZM229.437 129.944V141.086H231.409C232.855 141.086 233.978 140.637 234.779 139.739C235.586 138.84 235.99 137.561 235.99 135.901V135.071C235.99 133.456 235.609 132.203 234.847 131.311C234.092 130.412 233.017 129.957 231.624 129.944H229.437Z" fill="#E2E2E2"/>
</g>
<g id="c">
<rect x="232.911" y="166.368" width="50.6329" height="50.4146" rx="6" fill="#9B9B9B"/>
<path id="C" d="M263.337 193.564C263.161 195.068 262.605 196.23 261.667 197.05C260.736 197.864 259.496 198.271 257.947 198.271C256.267 198.271 254.919 197.669 253.904 196.464C252.895 195.26 252.39 193.648 252.39 191.63V190.263C252.39 188.941 252.624 187.779 253.093 186.777C253.568 185.774 254.239 185.006 255.105 184.472C255.971 183.932 256.973 183.661 258.113 183.661C259.623 183.661 260.834 184.085 261.745 184.931C262.657 185.771 263.187 186.936 263.337 188.427H261.452C261.29 187.294 260.935 186.474 260.388 185.966C259.848 185.458 259.089 185.204 258.113 185.204C256.915 185.204 255.974 185.647 255.29 186.532C254.613 187.418 254.275 188.678 254.275 190.312V191.689C254.275 193.232 254.597 194.459 255.242 195.37C255.886 196.282 256.788 196.738 257.947 196.738C258.988 196.738 259.786 196.503 260.339 196.034C260.899 195.559 261.27 194.736 261.452 193.564H263.337Z" fill="#E2E2E2"/>
</g>
<g id="r">
<rect x="248.101" y="55.4561" width="50.6329" height="50.4146" rx="6" fill="#9B9B9B"/>
<path id="R" d="M273.783 81.4114H270.443V87.1634H268.558V72.9446H273.265C274.867 72.9446 276.097 73.3092 276.957 74.0384C277.823 74.7675 278.256 75.8287 278.256 77.222C278.256 78.1074 278.015 78.8789 277.533 79.5364C277.058 80.194 276.394 80.6855 275.541 81.011L278.881 87.0462V87.1634H276.869L273.783 81.4114ZM270.443 79.8782H273.324C274.255 79.8782 274.994 79.6373 275.541 79.1555C276.094 78.6738 276.371 78.0292 276.371 77.222C276.371 76.343 276.107 75.6692 275.58 75.2005C275.059 74.7317 274.304 74.4941 273.314 74.4876H270.443V79.8782Z" fill="#E2E2E2"/>
</g>
<g id="key-3">
<rect x="167.089" width="50.6329" height="50.4146" rx="6" fill="#9B9B9B"/>
<path id="3" d="M190.214 23.719H191.571C192.424 23.706 193.095 23.4814 193.583 23.0452C194.071 22.609 194.315 22.0198 194.315 21.2776C194.315 19.6109 193.485 18.7776 191.825 18.7776C191.044 18.7776 190.419 19.0022 189.95 19.4514C189.488 19.8941 189.257 20.4833 189.257 21.219H187.45C187.45 20.0927 187.86 19.1585 188.68 18.4163C189.507 17.6676 190.555 17.2932 191.825 17.2932C193.166 17.2932 194.218 17.6481 194.979 18.3577C195.741 19.0673 196.122 20.0537 196.122 21.3167C196.122 21.9352 195.92 22.5341 195.516 23.1135C195.119 23.693 194.576 24.1259 193.886 24.4124C194.667 24.6598 195.269 25.0699 195.692 25.6428C196.122 26.2158 196.337 26.9156 196.337 27.7425C196.337 29.0185 195.92 30.0309 195.087 30.7796C194.253 31.5283 193.169 31.9026 191.835 31.9026C190.5 31.9026 189.413 31.5413 188.573 30.8186C187.74 30.096 187.323 29.1422 187.323 27.9573H189.139C189.139 28.706 189.384 29.305 189.872 29.7542C190.36 30.2034 191.014 30.428 191.835 30.428C192.707 30.428 193.374 30.2001 193.837 29.7444C194.299 29.2887 194.53 28.6344 194.53 27.7815C194.53 26.9547 194.276 26.3199 193.768 25.8772C193.261 25.4345 192.528 25.2066 191.571 25.1936H190.214V23.719Z" fill="#E2E2E2"/>
</g>
<g id="f">
<rect x="263.291" y="110.912" width="50.6329" height="50.4146" rx="6" fill="#9B9B9B"/>
<path id="F" d="M292.1 136.34H286.133V142.619H284.258V128.401H293.067V129.944H286.133V134.807H292.1V136.34Z" fill="#E2E2E2"/>
</g>
<g id="v">
<rect x="288.608" y="166.368" width="50.6329" height="50.4146" rx="6" fill="#9B9B9B"/>
<path id="V" d="M313.781 195.585L317.844 183.857H319.895L314.621 198.075H312.961L307.698 183.857H309.739L313.781 195.585Z" fill="#E2E2E2"/>
</g>
<g id="t">
<rect x="303.797" y="55.4561" width="50.633" height="50.4146" rx="6" fill="#9B9B9B"/>
<path id="T" d="M334.589 74.4876H330.018V87.1634H328.153V74.4876H323.592V72.9446H334.589V74.4876Z" fill="#E2E2E2"/>
</g>
<g id="key-4">
<rect x="222.785" width="50.6329" height="50.4146" rx="6" fill="#9B9B9B"/>
<path id="4" d="M250.91 26.9319H252.883V28.4065H250.91V31.7073H249.093V28.4065H242.619V27.3421L248.986 17.4885H250.91V26.9319ZM244.67 26.9319H249.093V19.9593L248.879 20.3499L244.67 26.9319Z" fill="#E2E2E2"/>
</g>
<g id="g">
<rect x="318.987" y="110.912" width="50.6329" height="50.4146" rx="6" fill="#9B9B9B"/>
<path id="G" d="M349.452 140.754C348.97 141.444 348.297 141.962 347.431 142.307C346.571 142.645 345.569 142.815 344.423 142.815C343.264 142.815 342.235 142.545 341.337 142.004C340.439 141.457 339.742 140.683 339.247 139.68C338.759 138.677 338.508 137.515 338.495 136.194V134.953C338.495 132.811 338.993 131.151 339.989 129.973C340.992 128.795 342.398 128.205 344.208 128.205C345.692 128.205 346.887 128.586 347.792 129.348C348.697 130.103 349.25 131.177 349.452 132.571H347.577C347.226 130.689 346.106 129.748 344.218 129.748C342.961 129.748 342.008 130.191 341.357 131.076C340.712 131.955 340.386 133.231 340.38 134.905V136.067C340.38 137.662 340.745 138.931 341.474 139.875C342.203 140.813 343.189 141.282 344.433 141.282C345.136 141.282 345.751 141.203 346.278 141.047C346.806 140.891 347.242 140.627 347.587 140.256V137.063H344.296V135.539H349.452V140.754Z" fill="#E2E2E2"/>
</g>
<g id="b">
<rect x="344.304" y="166.368" width="50.6329" height="50.4146" rx="6" fill="#9B9B9B"/>
<path id="B" d="M364.771 198.075V183.857H369.419C370.962 183.857 372.121 184.176 372.896 184.814C373.677 185.452 374.068 186.396 374.068 187.646C374.068 188.31 373.879 188.899 373.501 189.413C373.123 189.921 372.609 190.315 371.958 190.595C372.726 190.81 373.332 191.22 373.775 191.825C374.224 192.424 374.448 193.141 374.448 193.974C374.448 195.25 374.035 196.253 373.208 196.982C372.381 197.711 371.213 198.075 369.702 198.075H364.771ZM366.646 191.425V196.542H369.741C370.614 196.542 371.301 196.318 371.802 195.868C372.31 195.413 372.564 194.788 372.564 193.993C372.564 192.281 371.633 191.425 369.771 191.425H366.646ZM366.646 189.921H369.478C370.298 189.921 370.952 189.716 371.441 189.306C371.935 188.896 372.183 188.339 372.183 187.636C372.183 186.855 371.955 186.288 371.499 185.937C371.043 185.579 370.35 185.4 369.419 185.4H366.646V189.921Z" fill="#E2E2E2"/>
</g>
<g id="y">
<rect x="359.494" y="55.4561" width="50.6329" height="50.4146" rx="6" fill="#9B9B9B"/>
<path id="Y" d="M384.296 80.0833L388.007 72.9446H390.136L385.234 81.8606V87.1634H383.359V81.8606L378.457 72.9446H380.605L384.296 80.0833Z" fill="#E2E2E2"/>
</g>
<g id="key-5">
<rect x="278.481" width="50.6329" height="50.4146" rx="6" fill="#9B9B9B"/>
<path id="5" d="M299.809 24.5784L300.532 17.4885H307.817V19.1585H302.065L301.635 23.0354C302.332 22.6253 303.123 22.4202 304.008 22.4202C305.304 22.4202 306.333 22.8499 307.094 23.7093C307.856 24.5621 308.237 25.7177 308.237 27.176C308.237 28.6409 307.84 29.7965 307.046 30.6428C306.258 31.4827 305.154 31.9026 303.735 31.9026C302.478 31.9026 301.453 31.5543 300.659 30.8577C299.865 30.1611 299.412 29.1975 299.301 27.9671H301.01C301.121 28.7809 301.411 29.3961 301.88 29.8128C302.348 30.2229 302.967 30.428 303.735 30.428C304.575 30.428 305.232 30.1415 305.708 29.5686C306.189 28.9957 306.43 28.2047 306.43 27.1956C306.43 26.2451 306.17 25.4833 305.649 24.9104C305.135 24.331 304.448 24.0413 303.589 24.0413C302.801 24.0413 302.182 24.2138 301.733 24.5589L301.255 24.9495L299.809 24.5784Z" fill="#E2E2E2"/>
</g>
<g id="h">
<rect x="374.684" y="110.912" width="50.6329" height="50.4146" rx="6" fill="#9B9B9B"/>
<path id="H" d="M405.078 142.619H403.193V136.047H396.025V142.619H394.15V128.401H396.025V134.514H403.193V128.401H405.078V142.619Z" fill="#E2E2E2"/>
</g>
<g id="n">
<rect x="400" y="166.368" width="50.6329" height="50.4146" rx="6" fill="#9B9B9B"/>
<path id="N" d="M430.395 198.075H428.51L421.352 187.118V198.075H419.467V183.857H421.352L428.529 194.863V183.857H430.395V198.075Z" fill="#E2E2E2"/>
</g>
<g id="u">
<rect x="415.19" y="55.4561" width="50.6329" height="50.4146" rx="6" fill="#9B9B9B"/>
<path id="U" d="M445.667 72.9446V82.6126C445.66 83.9537 445.237 85.0507 444.397 85.9036C443.564 86.7565 442.431 87.235 440.999 87.3391L440.5 87.3587C438.944 87.3587 437.704 86.9388 436.78 86.0989C435.855 85.2591 435.387 84.1035 435.374 82.6321V72.9446H437.229V82.5735C437.229 83.6022 437.512 84.4029 438.079 84.9759C438.645 85.5423 439.452 85.8255 440.5 85.8255C441.562 85.8255 442.372 85.5423 442.932 84.9759C443.499 84.4095 443.782 83.6119 443.782 82.5833V72.9446H445.667Z" fill="#E2E2E2"/>
</g>
<g id="key-6">
<rect x="334.177" width="50.6329" height="50.4146" rx="6" fill="#9B9B9B"/>
<path id="6" d="M361.765 17.4788V19.012H361.433C360.027 19.038 358.907 19.4547 358.074 20.262C357.24 21.0693 356.759 22.2053 356.628 23.6702C357.377 22.8108 358.399 22.3811 359.695 22.3811C360.932 22.3811 361.918 22.8173 362.654 23.6897C363.396 24.5621 363.767 25.6884 363.767 27.0686C363.767 28.5335 363.367 29.7053 362.566 30.5843C361.772 31.4632 360.704 31.9026 359.363 31.9026C358.002 31.9026 356.899 31.3818 356.052 30.3401C355.206 29.2919 354.783 27.9443 354.783 26.2971V25.6038C354.783 22.9866 355.339 20.9879 356.453 19.6077C357.572 18.221 359.236 17.5113 361.443 17.4788H361.765ZM359.392 23.885C358.774 23.885 358.204 24.0706 357.683 24.4417C357.162 24.8128 356.801 25.2783 356.599 25.8382V26.5022C356.599 27.6741 356.863 28.6181 357.39 29.3343C357.918 30.0504 358.575 30.4085 359.363 30.4085C360.177 30.4085 360.815 30.109 361.277 29.51C361.746 28.9111 361.98 28.1266 361.98 27.1565C361.98 26.18 361.742 25.3922 361.267 24.7932C360.798 24.1878 360.173 23.885 359.392 23.885Z" fill="#E2E2E2"/>
</g>
<g id="j">
<rect x="430.38" y="110.912" width="50.6329" height="50.4146" rx="6" fill="#9B9B9B"/>
<path id="J" d="M457.304 128.401H459.188V138.469C459.188 139.83 458.778 140.894 457.958 141.662C457.144 142.431 456.057 142.815 454.696 142.815C453.283 142.815 452.183 142.453 451.395 141.731C450.608 141.008 450.214 139.996 450.214 138.694H452.089C452.089 139.507 452.31 140.142 452.753 140.598C453.202 141.054 453.85 141.282 454.696 141.282C455.471 141.282 456.096 141.037 456.571 140.549C457.053 140.061 457.297 139.377 457.304 138.498V128.401Z" fill="#E2E2E2"/>
</g>
<g id="m">
<rect x="455.696" y="166.368" width="50.6329" height="50.4146" rx="6" fill="#9B9B9B"/>
<path id="M" d="M476.085 183.857L480.733 195.458L485.382 183.857H487.813V198.075H485.938V192.538L486.114 186.562L481.446 198.075H480.011L475.352 186.591L475.538 192.538V198.075H473.663V183.857H476.085Z" fill="#E2E2E2"/>
</g>
<g id="i">
<rect x="470.886" y="55.4561" width="50.6329" height="50.4146" rx="6" fill="#9B9B9B"/>
<path id="I" d="M496.865 87.1634H494.99V72.9446H496.865V87.1634Z" fill="#E2E2E2"/>
</g>
<g id="key-7">
<rect x="389.873" width="50.6329" height="50.4146" rx="6" fill="#9B9B9B"/>
<path id="7" d="M419.551 18.5042L413.663 31.7073H411.768L417.637 18.9729H409.942V17.4885H419.551V18.5042Z" fill="#E2E2E2"/>
</g>
<g id="k">
<rect x="486.076" y="110.912" width="50.6329" height="50.4146" rx="6" fill="#9B9B9B"/>
<path id="K" d="M510.156 136.008L508.418 137.815V142.619H506.543V128.401H508.418V135.432L514.736 128.401H517.002L511.406 134.68L517.441 142.619H515.195L510.156 136.008Z" fill="#E2E2E2"/>
</g>
<g id="comma">
<rect x="511.392" y="166.368" width="50.6329" height="50.4146" rx="6" fill="#9B9B9B"/>
<path id="," d="M536.017 200.907L534.992 200.204C535.604 199.351 535.923 198.473 535.949 197.568V195.937H537.717V197.353C537.717 198.01 537.554 198.668 537.228 199.325C536.909 199.983 536.506 200.51 536.017 200.907Z" fill="#E2E2E2"/>
</g>
<g id="o">
<rect x="526.582" y="55.4561" width="50.6329" height="50.4146" rx="6" fill="#9B9B9B"/>
<path id="O" d="M557.487 80.513C557.487 81.9062 557.252 83.1236 556.784 84.1653C556.315 85.2005 555.651 85.9915 554.791 86.5384C553.932 87.0852 552.929 87.3587 551.784 87.3587C550.664 87.3587 549.671 87.0852 548.805 86.5384C547.939 85.985 547.265 85.2005 546.784 84.1848C546.308 83.1627 546.064 81.9811 546.051 80.6399V79.6145C546.051 78.2473 546.289 77.0397 546.764 75.9915C547.239 74.9433 547.91 74.1425 548.776 73.5891C549.648 73.0292 550.644 72.7493 551.764 72.7493C552.903 72.7493 553.906 73.026 554.772 73.5794C555.644 74.1263 556.315 74.9238 556.784 75.972C557.252 77.0136 557.487 78.2278 557.487 79.6145V80.513ZM555.621 79.595C555.621 77.9088 555.283 76.6165 554.606 75.718C553.929 74.8131 552.981 74.3606 551.764 74.3606C550.579 74.3606 549.645 74.8131 548.961 75.718C548.284 76.6165 547.936 77.8665 547.916 79.468V80.513C547.916 82.1471 548.258 83.4329 548.942 84.3704C549.632 85.3014 550.579 85.7669 551.784 85.7669C552.994 85.7669 553.932 85.3274 554.596 84.4485C555.26 83.5631 555.602 82.2968 555.621 80.6497V79.595Z" fill="#E2E2E2"/>
</g>
<g id="key-8">
<rect x="445.57" width="50.6329" height="50.4146" rx="6" fill="#9B9B9B"/>
<path id="8" d="M474.691 21.1995C474.691 21.9091 474.502 22.5406 474.124 23.094C473.753 23.6474 473.249 24.0803 472.611 24.3928C473.353 24.7119 473.939 25.1774 474.368 25.7893C474.805 26.4013 475.023 27.0947 475.023 27.8694C475.023 29.0999 474.606 30.0797 473.773 30.8089C472.946 31.538 471.855 31.9026 470.501 31.9026C469.134 31.9026 468.037 31.538 467.21 30.8089C466.39 30.0732 465.98 29.0934 465.98 27.8694C465.98 27.1012 466.188 26.4078 466.605 25.7893C467.028 25.1708 467.611 24.7021 468.353 24.3831C467.721 24.0706 467.223 23.6376 466.859 23.0843C466.494 22.5309 466.312 21.9026 466.312 21.1995C466.312 20.0016 466.696 19.051 467.464 18.3479C468.232 17.6448 469.245 17.2932 470.501 17.2932C471.751 17.2932 472.76 17.6448 473.529 18.3479C474.303 19.051 474.691 20.0016 474.691 21.1995ZM473.216 27.8303C473.216 27.0361 472.962 26.3883 472.454 25.887C471.953 25.3857 471.296 25.135 470.482 25.135C469.668 25.135 469.014 25.3824 468.519 25.8772C468.031 26.372 467.786 27.0231 467.786 27.8303C467.786 28.6376 468.024 29.2724 468.499 29.7346C468.981 30.1969 469.648 30.428 470.501 30.428C471.348 30.428 472.012 30.1969 472.493 29.7346C472.975 29.2659 473.216 28.6311 473.216 27.8303ZM470.501 18.7776C469.792 18.7776 469.215 18.999 468.773 19.4417C468.337 19.8779 468.118 20.4736 468.118 21.2288C468.118 21.9514 468.333 22.5374 468.763 22.9866C469.199 23.4293 469.779 23.6507 470.501 23.6507C471.224 23.6507 471.8 23.4293 472.23 22.9866C472.666 22.5374 472.884 21.9514 472.884 21.2288C472.884 20.5061 472.659 19.9169 472.21 19.4612C471.761 19.0055 471.191 18.7776 470.501 18.7776Z" fill="#E2E2E2"/>
</g>
<g id="l">
<rect x="541.772" y="110.912" width="50.6329" height="50.4146" rx="6" fill="#9B9B9B"/>
<path id="L" d="M565.124 141.086H571.862V142.619H563.239V128.401H565.124V141.086Z" fill="#E2E2E2"/>
</g>
<g id="dot">
<rect x="567.089" y="166.368" width="50.6328" height="50.4146" rx="6" fill="#9B9B9B"/>
<path id="." d="M590.811 197.128C590.811 196.816 590.902 196.555 591.085 196.347C591.274 196.139 591.553 196.034 591.925 196.034C592.296 196.034 592.576 196.139 592.764 196.347C592.96 196.555 593.057 196.816 593.057 197.128C593.057 197.428 592.96 197.678 592.764 197.88C592.576 198.082 592.296 198.183 591.925 198.183C591.553 198.183 591.274 198.082 591.085 197.88C590.902 197.678 590.811 197.428 590.811 197.128Z" fill="#E2E2E2"/>
</g>
<g id="p">
<rect x="582.278" y="55.4561" width="50.633" height="50.4146" rx="6" fill="#9B9B9B"/>
<path id="P" d="M604.62 81.597V87.1634H602.745V72.9446H607.99C609.545 72.9446 610.763 73.3417 611.642 74.136C612.527 74.9303 612.97 75.9817 612.97 77.2903C612.97 78.6705 612.537 79.735 611.671 80.4837C610.812 81.2259 609.578 81.597 607.97 81.597H604.62ZM604.62 80.0638H607.99C608.992 80.0638 609.76 79.8294 610.294 79.3606C610.828 78.8854 611.095 78.2018 611.095 77.3098C611.095 76.4635 610.828 75.7864 610.294 75.2786C609.76 74.7708 609.028 74.5071 608.097 74.4876H604.62V80.0638Z" fill="#E2E2E2"/>
</g>
<g id="key-9">
<rect x="501.266" width="50.6329" height="50.4146" rx="6" fill="#9B9B9B"/>
<path id="9" d="M528.688 25.4573C528.31 25.9065 527.858 26.2678 527.33 26.5413C526.809 26.8147 526.237 26.9514 525.612 26.9514C524.791 26.9514 524.075 26.7496 523.463 26.346C522.858 25.9423 522.389 25.3759 522.057 24.6468C521.725 23.9111 521.559 23.1005 521.559 22.2151C521.559 21.2646 521.738 20.4085 522.096 19.6468C522.461 18.885 522.975 18.3024 523.639 17.8987C524.303 17.4951 525.078 17.2932 525.963 17.2932C527.369 17.2932 528.476 17.8206 529.283 18.8753C530.097 19.9234 530.504 21.3557 530.504 23.1721V23.6995C530.504 26.4664 529.957 28.4879 528.864 29.7639C527.77 31.0335 526.119 31.6845 523.912 31.7171H523.561V30.1936H523.942C525.433 30.1676 526.578 29.7802 527.379 29.0315C528.18 28.2763 528.616 27.0849 528.688 25.4573ZM525.905 25.4573C526.51 25.4573 527.067 25.2718 527.574 24.9007C528.089 24.5296 528.463 24.0706 528.698 23.5237V22.801C528.698 21.6162 528.44 20.6526 527.926 19.9104C527.412 19.1682 526.761 18.7971 525.973 18.7971C525.179 18.7971 524.541 19.1031 524.059 19.7151C523.577 20.3206 523.336 21.1214 523.336 22.1175C523.336 23.0875 523.567 23.8883 524.03 24.5198C524.498 25.1448 525.123 25.4573 525.905 25.4573Z" fill="#E2E2E2"/>
</g>
<g id="semicolon">
<rect x="597.468" y="110.912" width="50.6329" height="50.4146" rx="6" fill="#9B9B9B"/>
<path id=";" d="M621.369 133.049C621.369 132.737 621.46 132.476 621.642 132.268C621.831 132.06 622.111 131.955 622.482 131.955C622.853 131.955 623.133 132.06 623.322 132.268C623.517 132.476 623.615 132.737 623.615 133.049C623.615 133.349 623.517 133.599 623.322 133.801C623.133 134.003 622.853 134.104 622.482 134.104C622.111 134.104 621.831 134.003 621.642 133.801C621.46 133.599 621.369 133.349 621.369 133.049ZM621.711 145.451L620.685 144.748C621.297 143.895 621.616 143.017 621.642 142.112V140.481H623.41V141.897C623.41 142.554 623.247 143.212 622.922 143.869C622.603 144.527 622.199 145.054 621.711 145.451Z" fill="#E2E2E2"/>
</g>
<g id="slash">
<rect x="622.785" y="166.368" width="50.6329" height="50.4146" rx="6" fill="#9B9B9B"/>
<path id="/" d="M645.33 199.296H643.777L649.714 183.857H651.257L645.33 199.296Z" fill="#E2E2E2"/>
</g>
<g id="open-bracket">
<rect x="637.975" y="55.4561" width="50.6329" height="50.4146" rx="6" fill="#9B9B9B"/>
<path id="[" d="M665.399 72.3977H663.533V88.7259H665.399V90.2102H661.717V70.9134H665.399V72.3977Z" fill="#E2E2E2"/>
</g>
<g id="key-0">
<rect x="556.962" width="50.6329" height="50.4146" rx="6" fill="#9B9B9B"/>
<path id="0" d="M586.376 25.6428C586.376 27.7587 586.015 29.331 585.292 30.3596C584.569 31.3883 583.44 31.9026 581.903 31.9026C580.387 31.9026 579.263 31.4013 578.534 30.3987C577.805 29.3896 577.428 27.8857 577.401 25.887V23.4749C577.401 21.385 577.763 19.8323 578.485 18.8167C579.208 17.801 580.341 17.2932 581.884 17.2932C583.414 17.2932 584.54 17.7848 585.263 18.7678C585.985 19.7444 586.357 21.2548 586.376 23.2991V25.6428ZM584.569 23.1721C584.569 21.6422 584.355 20.5289 583.925 19.8323C583.495 19.1292 582.815 18.7776 581.884 18.7776C580.959 18.7776 580.286 19.1259 579.862 19.8225C579.439 20.5191 579.221 21.5901 579.208 23.0354V25.926C579.208 27.4625 579.429 28.5986 579.872 29.3343C580.321 30.0634 580.998 30.428 581.903 30.428C582.795 30.428 583.456 30.0829 583.886 29.3928C584.322 28.7027 584.55 27.6155 584.569 26.1311V23.1721Z" fill="#E2E2E2"/>
</g>
<g id="quote">
<rect x="653.165" y="110.912" width="50.633" height="50.4146" rx="6" fill="#9B9B9B"/>
<path id="&#226;&#128;&#152;" d="M678.618 127.434L679.653 128.137C679.047 128.964 678.735 129.856 678.715 130.813V132.141H676.919V131.008C676.919 130.344 677.075 129.686 677.387 129.035C677.706 128.384 678.116 127.851 678.618 127.434Z" fill="#E2E2E2"/>
</g>
<g id="close-bracket">
<rect x="693.671" y="55.4561" width="50.6328" height="50.4146" rx="6" fill="#9B9B9B"/>
<path id="]" d="M716.075 70.9134H719.767V90.2102H716.075V88.7259H717.96V72.3977H716.075V70.9134Z" fill="#E2E2E2"/>
</g>
<g id="minus">
<rect x="612.658" width="50.6329" height="50.4146" rx="6" fill="#9B9B9B"/>
<path id="-" d="M640.102 26.4046H635.336V24.93H640.102V26.4046Z" fill="#E2E2E2"/>
</g>
<g id="backslash">
<rect x="749.367" y="55.4561" width="50.6329" height="50.4146" rx="6" fill="#9B9B9B"/>
<path id="\" d="M770.574 72.9446H772.293L778.23 88.3841H776.512L770.574 72.9446Z" fill="#E2E2E2"/>
</g>
<g id="equal">
<rect x="668.354" width="50.6329" height="50.4146" rx="6" fill="#9B9B9B"/>
<path id="=" d="M697.8 23.7581H689.655V22.1858H697.8V23.7581ZM697.8 27.8108H689.655V26.2483H697.8V27.8108Z" fill="#E2E2E2"/>
</g>
<g id="Frame">
<rect x="724.051" width="75.9494" height="50.4146" rx="6" fill="#9B9B9B"/>
</g>
<g id="Frame_2">
<rect y="55.4561" width="75.9494" height="50.4146" rx="6" fill="#9B9B9B"/>
</g>
<g id="Frame_3">
<rect y="110.912" width="91.1392" height="50.4146" rx="6" fill="#9B9B9B"/>
</g>
<g id="Frame_4">
<rect y="166.368" width="116.456" height="50.4146" rx="6" fill="#9B9B9B"/>
</g>
<g id="Frame_5">
<rect x="212.658" y="221.824" width="316.456" height="50.4146" rx="6" fill="#9B9B9B"/>
</g>
<g id="Frame_6">
<rect x="678.481" y="166.368" width="121.519" height="50.4146" rx="6" fill="#9B9B9B"/>
</g>
<g id="Frame_7">
<rect x="708.861" y="110.912" width="91.1392" height="50.4146" rx="6" fill="#9B9B9B"/>
</g>
</g>
</svg>
